<svg width="166" height="50" viewBox="0 0 166 50" fill="none" xmlns="http://www.w3.org/2000/svg">
<g clip-path="url(#clip0_877_7979)">
<path d="M107.74 48.8448V48.4639H107.852C108.013 48.4639 108.081 48.5326 108.087 48.645C108.087 48.7449 108.037 48.8385 107.852 48.8385H107.74V48.8448ZM108.341 49.5192L108.118 48.9572C108.248 48.8448 108.261 48.7761 108.261 48.6575C108.261 48.4514 108.112 48.3203 107.87 48.3203H107.566V49.5192H107.734V48.9822H107.938L108.155 49.5192H108.335H108.341Z" fill="#999999"/>
<path d="M107.921 47.9581C107.4 47.9581 106.972 48.3889 106.972 48.9072C106.972 49.4255 107.4 49.8564 107.921 49.8564C108.441 49.8564 108.863 49.4318 108.863 48.9072C108.863 48.3827 108.441 47.9581 107.921 47.9581ZM107.921 50C107.326 50 106.836 49.5129 106.836 48.9072C106.836 48.3015 107.326 47.8207 107.921 47.8207C108.516 47.8207 108.999 48.3078 108.999 48.9072C108.999 49.5067 108.509 50 107.921 50Z" fill="#999999"/>
<path d="M50.9145 38.7599L48.0078 47.8519L44.5061 38.8161H43.6074L47.8219 49.9064H48.2123L51.2244 40.1274L54.2861 49.9064H54.6828L58.8724 38.8161H57.9552L54.503 47.8457L51.5529 38.7599H50.9145Z" fill="#999999"/>
<path d="M62.5039 38.8036V49.8127H67.8526V49.1008H63.353V38.8036H62.5039Z" fill="#999999"/>
<path d="M69.4082 38.8036V49.8127H74.7506V49.1008H70.2511V38.8036H69.4082Z" fill="#999999"/>
<path d="M77.0932 38.8036H76.2441V49.8127H77.0932V38.8036Z" fill="#999999"/>
<path d="M60.9487 38.8036H60.0996V49.8127H60.9487V38.8036Z" fill="#999999"/>
<path d="M83.0055 40.1336L85.1128 45.3104H80.9107L82.9993 40.1336H83.0055ZM82.8072 38.7473L78.2891 49.8127H79.0762L80.6256 46.0097H85.4041L86.9473 49.8127H87.7406L83.2225 38.7473H82.8072Z" fill="#999999"/>
<path d="M98.0665 38.8285L93.914 43.9366L89.7553 38.8285H88.9062V49.8127H89.7553V40.0712H89.7863L93.914 45.2042L98.0355 40.0712H98.0665V49.8127H98.9156V38.8285H98.0665Z" fill="#999999"/>
<path d="M105.926 40.6082C105.238 39.709 104.253 39.4967 103.503 39.4967C102.195 39.4967 101.204 40.4022 101.204 41.5949C101.204 44.5236 106.397 43.1248 106.397 46.9714C106.397 48.6637 105.009 49.9813 103.23 49.9813C102.338 49.9813 101.377 49.7377 100.435 49.0134V48.0142C101.501 49.0321 102.338 49.1882 103.187 49.1882C104.482 49.1882 105.486 48.2391 105.486 46.9964C105.486 43.8741 100.299 45.2417 100.299 41.6198C100.299 39.9963 101.7 38.7099 103.435 38.7036C104.315 38.7036 105.437 39.0658 105.939 39.6715V40.602L105.926 40.6082Z" fill="#999999"/>
<path d="M16.3008 38.841V49.8439H21.9159V48.4202H17.8688V38.841H16.3008Z" fill="#999999"/>
<path d="M22.9199 38.841V49.8439H28.5351V48.4202H24.4879V38.841H22.9199Z" fill="#999999"/>
<path d="M29.5449 38.841V49.8439H35.8852V48.4202H31.1129V45.0044H35.5877V43.5806H31.1129V40.2585H35.7427V38.841H29.5449Z" fill="#999999"/>
<path d="M38.4821 43.6493V40.1961H39.4923C41.017 40.1961 41.6243 40.8268 41.6367 41.8571C41.6553 42.7813 41.1719 43.6493 39.4923 43.6493H38.4821ZM43.9485 49.8439L41.928 44.7047C43.1304 43.7055 43.2667 43.0249 43.2543 41.9196C43.2357 40.015 41.8784 38.841 39.6659 38.841H36.9141V49.8439H38.4821V44.9232C38.4821 44.9232 39.7774 44.9232 40.3538 44.9232L42.3309 49.8439H43.9547H43.9485Z" fill="#999999"/>
<path d="M8.94336 38.841V49.8252H15.2712V48.4077H10.5114V44.9919H14.9676V43.5744H10.5114V40.2585H15.1287V38.841H8.94336Z" fill="#999999"/>
<path d="M6.14815 38.841L5.59655 39.4468L1.57422 43.8554V38.841H0V49.8064H1.57422V46.041L3.31579 44.1177L5.59655 49.8064H7.21416L6.64397 48.3889L4.43138 42.8812L6.81131 40.2523L8.09424 38.841H6.14815Z" fill="#999999"/>
<path d="M0 0V33.2896H4.61111V25.4777L7.98887 22.0932L12.693 33.2896H17.3598L11.1559 18.4339L15.5129 13.5694L23.9666 33.2896H25.7392L32.0856 18.0405L38.5251 33.2896H40.279L49.9351 10.8405H45.2062L39.3928 24.4598L33.7528 10.8405H30.4928L24.8033 24.4598L18.9589 10.8405H12.8231L4.61111 19.0958V0H0Z" fill="#B40101"/>
<path d="M57.2854 26.3834V26.9517C57.2854 29.693 58.4754 31.0855 60.9483 31.0855C63.2042 31.0855 64.326 29.4745 64.326 27.8072C64.326 25.4405 63.1361 24.3976 61.1342 23.7982L58.6923 22.9489C55.4385 21.6875 54.0254 19.9828 54.0254 16.7668C54.0254 12.6642 56.7772 10.3974 60.9731 10.3974C66.6998 10.3974 67.2947 13.9943 67.2947 16.3297V16.8355H63.7249V16.3609C63.7249 14.3127 62.82 13.1138 60.595 13.1138C59.0642 13.1138 57.5891 13.963 57.5891 16.3609C57.5891 18.2842 58.5621 19.2646 60.9359 20.1763L63.3468 21.0568C66.5076 22.1933 67.8835 23.9293 67.8835 27.0204C67.8835 31.8162 65.0016 33.8019 60.4958 33.8019C54.9551 33.8019 53.7031 30.0802 53.7031 26.9267V26.3897H57.273L57.2854 26.3834Z" fill="#999999"/>
<path d="M69.5684 10.8343H73.1383V30.3235H81.7779V33.3521H69.5684V10.8343Z" fill="#999999"/>
<path d="M82.2559 22.0932C82.2559 14.0502 84.5118 10.3909 89.6436 10.3909C94.7753 10.3909 97.0312 14.0502 97.0312 22.0932C97.0312 30.1361 94.7753 33.7954 89.6436 33.7954C84.5118 33.7954 82.2559 30.1361 82.2559 22.0932ZM93.4614 21.9995C93.4614 14.4311 91.7694 13.1073 89.6436 13.1073C87.5177 13.1073 85.8257 14.4311 85.8257 21.9995C85.8257 29.5679 87.5177 31.0853 89.6436 31.0853C91.7694 31.0853 93.4614 29.7614 93.4614 21.9995Z" fill="#999999"/>
<path d="M97.0508 10.8343H100.838L104.624 28.8123H104.686L108.69 10.8343H112.477L106.843 33.3521H102.306L97.0508 10.8343Z" fill="#999999"/>
<path d="M113.654 10.8343H125.74V13.8629H117.224V20.1074H125.238V23.136H117.224V30.3297H125.988V33.3583H113.654V10.8343Z" fill="#999999"/>
<path d="M127.66 10.8343H132.011L138.494 27.6133H138.556V10.8343H141.934V33.3521H137.583L131.1 16.1296H131.038V33.3521H127.654V10.8343H127.66Z" fill="#999999"/>
<path d="M144.586 10.8343H148.156V33.3521H144.586V10.8343Z" fill="#999999"/>
<path d="M155.544 10.8343H160.112L166 33.3521H162.275L160.899 27.8319H154.354L152.916 33.3521H149.191L155.544 10.8343ZM160.304 24.9656L157.738 13.8629H157.676L155.017 24.9656H160.31H160.304Z" fill="#999999"/>
</g>
<defs>
<clipPath id="clip0_877_7979">
<rect width="166" height="50" fill="white"/>
</clipPath>
</defs>
</svg>
